Coordinates

Units are S.I. units (second, meters, Newtons, ...)
If the header above contains a line with 'inDegrees', this indicates whether rotational values are in degrees (yes) or radians (no).

inDegrees=no
nColumns=21
nRows=10
DataType=double
version=3
OpenSimVersion=4.6-2026-03-31-d6972f9e6
endheader
time	/jointset/ground_pelvis/pelvis_tilt/value	/jointset/ground_pelvis/pelvis_list/value	/jointset/ground_pelvis/pelvis_rotation/value	/jointset/ground_pelvis/pelvis_tx/value	/jointset/ground_pelvis/pelvis_ty/value	/jointset/ground_pelvis/pelvis_tz/value	/jointset/hip_r/hip_flexion_r/value	/jointset/hip_r/hip_adduction_r/value	/jointset/hip_r/hip_rotation_r/value	/jointset/walker_knee_r/knee_angle_r/value	/jointset/patellofemoral_r/knee_angle_r_beta/value	/jointset/ankle_r/ankle_angle_r/value	/jointset/subtalar_r/subtalar_angle_r/value	/jointset/hip_l/hip_flexion_l/value	/jointset/hip_l/hip_adduction_l/value	/jointset/hip_l/hip_rotation_l/value	/jointset/walker_knee_l/knee_angle_l/value	/jointset/patellofemoral_l/knee_angle_l_beta/value	/jointset/ankle_l/ankle_angle_l/value	/jointset/subtalar_l/subtalar_angle_l/value
144.996	-0.216424253832408	0.06842164457565651	0.01303910263604259	1.182308057269531	0.9559786368167594	-0.3331851416760162	-0.05147618596922318	-0.03047368848953387	-0.09433057466100694	0.2571662237724113	0.2571662242081215	-0.03848628874555372	-0.2259536419367881	0.6192124036078315	0.05274937140540826	0.1013115097749261	1.117144209378114	1.117144209337195	-0.06192317582774624	-0.3981522882946937
145	-0.2223903519165969	0.07594879325940776	0.01507673226677873	1.182567682507887	0.9579906155439314	-0.3330585790632496	-0.06216798676930024	-0.03979994182525388	-0.1014614431403568	0.2445122460672653	0.244512246154599	-0.06357913360493922	-0.2113699672558653	0.6273215994711248	0.06274215633392319	0.09884953940385857	1.078532392929979	1.078532393153624	-0.06278560862455491	-0.4000269277565358
145.004	-0.2284454609825762	0.0828579125600752	0.01738497543063223	1.182839940884105	0.9598938939962897	-0.3329573601616471	-0.07213529130550805	-0.04851278333428228	-0.1091092673148371	0.2329290670034795	0.2329290667455875	-0.08807311558591369	-0.1966079500141016	0.6348430461631452	0.07218257196116953	0.09695917444485816	1.038754260046125	1.038754260525666	-0.06397045535583767	-0.401599062557795
145.008	-0.2345437616786623	0.0890834837575087	0.01996772501369091	1.183124466874447	0.9616814425570829	-0.3328788048874698	-0.08144038305845254	-0.05652450736306	-0.1171926997246734	0.2224386155261454	0.2224386149383569	-0.1117829579583796	-0.1818432101593461	0.6417592570255582	0.08100733998533435	0.09565093854323679	0.9979087160492355	0.9979087167684108	-0.06533707501461675	-0.4025621216902334
145.012	-0.2406337427856441	0.09456987229812995	0.02281593316326036	1.183420774723528	0.9633470913318755	-0.3328194678419356	-0.0901507724445935	-0.06375652807406147	-0.1256033814893905	0.2130657735453474	0.2130657726537324	-0.134535531811012	-0.1672699078919669	0.6480512535043723	0.08915720335185534	0.09490900226336782	0.9561102224458304	0.9561102233822665	-0.06674087039930503	-0.4026084869431491
145.016	-0.2466574755252953	0.09927280258421867	0.025908620564687	1.183728283877502	0.9648856815367892	-0.332775351492405	-0.09833939552652012	-0.07014184121575927	-0.1342084360212339	0.2048382950398855	0.2048382938794261	-0.1561728015320199	-0.1530957939675344	0.6536982800707917	0.09657911934704598	0.09469190102056052	0.9134895893392038	0.9134895904659845	-0.06803771129442412	-0.4014372754124649
145.02	-0.252550260957283	0.1031606221654519	0.02921436177903627	1.184046348342316	0.9662931900760496	-0.3327421276247425	-0.1060845540323647	-0.07562715420995948	-0.142854059985065	0.1977864674680574	0.1977864660806242	-0.1765546500586581	-0.1395366431599009	0.6586777202728058	0.1032284643681058	0.09493406405162237	0.8701944270969814	0.8701944283840262	-0.06908861116956494	-0.3987625982255315
145.024	-0.2582408948613623	0.1062152285446654	0.03269313941520888	1.184374283013157	0.9675668053596261	-0.3327153532716643	-0.1134692960121043	-0.08017451983967228	-0.1513699687734328	0.1919426107697795	0.1919426092020429	-0.1955615264235537	-0.1268103452379354	0.6629654647271145	0.1090710365265177	0.09554811225261681	0.8263892587781508	0.8263892601931467	-0.06976439660150452	-0.3943219632577525
145.028	-0.2636527149629159	0.1084325472461526	0.03629844536461332	1.184711380907212	0.9687049379294168	-0.3326906685293664	-0.1205800220534997	-0.08376233913992856	-0.1595744320984873	0.1873405053689355	0.1873405036703169	-0.2130968474975001	-0.1151309540839538	0.666536905778109	0.1140846574217403	0.09642786511991561	0.7822552935054496	0.7822552950143185	-0.06995010005760227	-0.3878844837290423
145.032	-0.2687054201434074	0.10982250955467	0.03997950904835679	1.185056918970492	0.9697071628198797	-0.3326639666119283	-0.1275043060333798	-0.08638567692284078	-0.1672796907134421	0.1840148213520068	0.1840148195726665	-0.2290890330576482	-0.1047029112891908	0.669368536767909	0.1182602516436688	0.0974519801395998	0.7379898259108274	0.7379898274780541	-0.06954888696512879	-0.3792586837810553
